# xmcd
#
# Track frame offsets:
#	150
#	17793
#	33105
#	50348
#	62795
#	81483
#	97755
#	108713
#	122195
#	133655
#	148363
#	161490
#	175375
#	195483
#
# Disc length: 2773
#
# Revision: 1
# Processed by: cddbd v1.5.1PL0 Copyright (c) Steve Scherf et al.
# Submitted via: FreeRIP 2.92 
# Normalized: r0:DSETVAR1
#
DISCID=c50ad30e
DTITLE=Various Artist - Classic Country Vol.9
DYEAR=1900
DGENRE=Country
TTITLE0=Alabama - Mountain Music
TTITLE1=Dolly Parton - Applejack
TTITLE2=Willie Nelson - Me and Paul
TTITLE3=Waylon Jennings - Mason Dixon Lines
TTITLE4=Alabama - My Home Is In Alabama
TTITLE5=Waylon Jennings - Lonesome On'ry and Mean
TTITLE6=Dolly Parton - Shattered Image
TTITLE7=Willie Nelson - Fire and Rain
TTITLE8=Waylon Jennings - Ladies Love Outlaws
TTITLE9=Dolly Parton - Harper Valley P.T.A.
TTITLE10=Waylon Jennings - Are You Sure Hank Done It This Way
TTITLE11=Dolly Parton - Joshua
TTITLE12=Alabama - Caroline Mountiain Dew
TTITLE13=Waylon Jennings/Jessie Colter - Storms Never Last
EXTD=
EXTT0=
EXTT1=
EXTT2=
EXTT3=
EXTT4=
EXTT5=
EXTT6=
EXTT7=
EXTT8=
EXTT9=
EXTT10=
EXTT11=
EXTT12=
EXTT13=
PLAYORDER=
